<svg width="5" height="5" viewBox="0 0 5 5" fill="none" xmlns="http://www.w3.org/2000/svg">
<g id="Account Settings" clip-path="url(#clip0_915_539)">
<path id="Vector" d="M4.14577 2.6375C4.11237 2.59948 4.09395 2.5506 4.09395 2.5C4.09395 2.44939 4.11237 2.40052 4.14577 2.3625L4.41244 2.0625C4.44182 2.02972 4.46007 1.98848 4.46456 1.94469C4.46905 1.9009 4.45956 1.85681 4.43744 1.81875L4.02077 1.09792C3.99888 1.0599 3.96554 1.02976 3.92551 1.01181C3.88548 0.993852 3.84081 0.98899 3.79785 0.997915L3.40619 1.07708C3.35635 1.08738 3.30447 1.07908 3.26033 1.05375C3.21619 1.02842 3.18285 0.987808 3.1666 0.939582L3.03952 0.558332C3.02554 0.516952 2.99892 0.481012 2.9634 0.455591C2.92789 0.430169 2.88528 0.416552 2.8416 0.416665H2.00827C1.96284 0.414294 1.91788 0.426858 1.88026 0.452439C1.84264 0.47802 1.81443 0.515211 1.79994 0.558332L1.68327 0.939582C1.66702 0.987808 1.63368 1.02842 1.58954 1.05375C1.54541 1.07908 1.49352 1.08738 1.44369 1.07708L1.0416 0.997915C1.00089 0.992161 0.959375 0.998587 0.922302 1.01638C0.885228 1.03418 0.85425 1.06255 0.833271 1.09792L0.416604 1.81875C0.393929 1.85638 0.383734 1.90022 0.387476 1.944C0.391218 1.98778 0.408705 2.02926 0.437438 2.0625L0.702021 2.3625C0.735421 2.40052 0.753841 2.44939 0.753841 2.5C0.753841 2.5506 0.735421 2.59948 0.702021 2.6375L0.437438 2.9375C0.408705 2.97074 0.391218 3.01222 0.387476 3.05599C0.383734 3.09977 0.393929 3.14361 0.416604 3.18125L0.833271 3.90208C0.855166 3.9401 0.888504 3.97023 0.928532 3.98819C0.96856 4.00615 1.01323 4.01101 1.05619 4.00208L1.44785 3.92292C1.49769 3.91262 1.54957 3.92092 1.59371 3.94625C1.63785 3.97158 1.67119 4.01219 1.68744 4.06042L1.81452 4.44167C1.82902 4.48479 1.85723 4.52198 1.89485 4.54756C1.93247 4.57314 1.97742 4.5857 2.02285 4.58333H2.85619C2.89986 4.58344 2.94247 4.56983 2.97799 4.54441C3.0135 4.51899 3.04013 4.48304 3.0541 4.44167L3.18119 4.06042C3.19744 4.01219 3.23078 3.97158 3.27491 3.94625C3.31905 3.92092 3.37093 3.91262 3.42077 3.92292L3.81244 4.00208C3.85539 4.01101 3.90007 4.00615 3.94009 3.98819C3.98012 3.97023 4.01346 3.9401 4.03535 3.90208L4.45202 3.18125C4.47414 3.14319 4.48364 3.0991 4.47914 3.05531C4.47465 3.01152 4.45641 2.97028 4.42702 2.9375L4.14577 2.6375ZM3.83535 2.91667L4.00202 3.10417L3.73535 3.56667L3.48952 3.51667C3.33947 3.48599 3.18339 3.51148 3.05089 3.58829C2.9184 3.6651 2.81872 3.78788 2.77077 3.93333L2.6916 4.16667H2.15827L2.08327 3.92917C2.03532 3.78372 1.93564 3.66093 1.80315 3.58412C1.67065 3.50732 1.51457 3.48183 1.36452 3.5125L1.11869 3.5625L0.847854 3.10208L1.01452 2.91458C1.11701 2.79999 1.17367 2.65165 1.17367 2.49792C1.17367 2.34418 1.11701 2.19584 1.01452 2.08125L0.847854 1.89375L1.11452 1.43542L1.36035 1.48542C1.5104 1.51609 1.66649 1.4906 1.79898 1.41379C1.93148 1.33698 2.03116 1.2142 2.0791 1.06875L2.15827 0.833332H2.6916L2.77077 1.07083C2.81872 1.21628 2.9184 1.33906 3.05089 1.41587C3.18339 1.49268 3.33947 1.51817 3.48952 1.4875L3.73535 1.4375L4.00202 1.9L3.83535 2.0875C3.73401 2.20182 3.67806 2.34931 3.67806 2.50208C3.67806 2.65486 3.73401 2.80234 3.83535 2.91667ZM2.42494 1.66667C2.26012 1.66667 2.099 1.71554 1.96196 1.80711C1.82492 1.89868 1.71811 2.02882 1.65504 2.1811C1.59196 2.33337 1.57546 2.50092 1.60762 2.66257C1.63977 2.82422 1.71914 2.97271 1.83568 3.08925C1.95223 3.2058 2.10071 3.28517 2.26236 3.31732C2.42401 3.34947 2.59157 3.33297 2.74384 3.2699C2.89611 3.20683 3.02626 3.10001 3.11783 2.96297C3.2094 2.82593 3.25827 2.66482 3.25827 2.5C3.25827 2.27898 3.17047 2.06702 3.01419 1.91074C2.85791 1.75446 2.64595 1.66667 2.42494 1.66667ZM2.42494 2.91667C2.34253 2.91667 2.26197 2.89223 2.19345 2.84644C2.12493 2.80066 2.07152 2.73559 2.03999 2.65945C2.00845 2.58331 2.0002 2.49954 2.01628 2.41871C2.03235 2.33789 2.07204 2.26364 2.13031 2.20537C2.18858 2.1471 2.26282 2.10742 2.34365 2.09134C2.42448 2.07526 2.50825 2.08351 2.58439 2.11505C2.66052 2.14659 2.7256 2.19999 2.77138 2.26851C2.81717 2.33703 2.8416 2.41759 2.8416 2.5C2.8416 2.61051 2.79771 2.71649 2.71957 2.79463C2.64143 2.87277 2.53544 2.91667 2.42494 2.91667Z" fill="#71839B"/>
</g>
<defs>
<clipPath id="clip0_915_539">
<rect width="5" height="5" fill="white"/>
</clipPath>
</defs>
</svg>
