<svg width="5" height="5" viewBox="0 0 5 5" fill="none" xmlns="http://www.w3.org/2000/svg">
<g id="Admin Icon" clip-path="url(#clip0_915_497)">
<path id="Vector" d="M2.29171 0.416664C1.87966 0.416664 1.47687 0.53885 1.13427 0.767769C0.791668 0.996689 0.524642 1.32206 0.366959 1.70274C0.209277 2.08342 0.16802 2.50231 0.248406 2.90644C0.328792 3.31056 0.52721 3.68178 0.818569 3.97314C1.10993 4.2645 1.48114 4.46291 1.88527 4.5433C2.2894 4.62369 2.70829 4.58243 3.08897 4.42475C3.46964 4.26706 3.79502 4.00004 4.02394 3.65744C4.25286 3.31483 4.37504 2.91204 4.37504 2.5C4.37504 2.22641 4.32115 1.9555 4.21646 1.70274C4.11176 1.44998 3.9583 1.22031 3.76485 1.02686C3.57139 0.833403 3.34173 0.679946 3.08897 0.575248C2.8362 0.470551 2.5653 0.416664 2.29171 0.416664ZM2.29171 4.16666C1.96207 4.16666 1.63984 4.06892 1.36576 3.88578C1.09168 3.70264 0.878055 3.44235 0.751909 3.1378C0.625763 2.83326 0.592757 2.49815 0.657066 2.17485C0.721375 1.85155 0.880109 1.55457 1.1132 1.32149C1.34628 1.0884 1.64326 0.929664 1.96656 0.865355C2.28986 0.801047 2.62497 0.834052 2.92951 0.960198C3.23406 1.08634 3.49435 1.29997 3.67749 1.57405C3.86063 1.84813 3.95837 2.17036 3.95837 2.5C3.95837 2.94203 3.78278 3.36595 3.47022 3.67851C3.15766 3.99107 2.73374 4.16666 2.29171 4.16666ZM2.50004 2.48541V1.45833C2.50004 1.40308 2.47809 1.35009 2.43902 1.31102C2.39995 1.27195 2.34696 1.25 2.29171 1.25C2.23645 1.25 2.18346 1.27195 2.14439 1.31102C2.10532 1.35009 2.08337 1.40308 2.08337 1.45833V2.5C2.08337 2.5 2.08337 2.51458 2.08337 2.52291C2.07825 2.56527 2.08625 2.60817 2.10629 2.64583L2.41879 3.1875C2.44642 3.23557 2.49201 3.27069 2.54554 3.28515C2.59906 3.29961 2.65614 3.29221 2.70421 3.26458C2.75228 3.23695 2.78741 3.19136 2.80186 3.13784C2.81632 3.08431 2.80892 3.02723 2.78129 2.97916L2.50004 2.48541Z" fill="#71839B"/>
</g>
<defs>
<clipPath id="clip0_915_497">
<rect width="5" height="5" fill="white"/>
</clipPath>
</defs>
</svg>
