<svg width="5" height="5" viewBox="0 0 5 5" fill="none" xmlns="http://www.w3.org/2000/svg">
<g id="Dashboard Icon" clip-path="url(#clip0_915_573)">
<path id="Vector" d="M2.08333 2.70833H0.833333C0.77808 2.70833 0.725089 2.73028 0.686019 2.76935C0.646949 2.80842 0.625 2.86141 0.625 2.91667V4.16667C0.625 4.22192 0.646949 4.27491 0.686019 4.31398C0.725089 4.35305 0.77808 4.375 0.833333 4.375H2.08333C2.13859 4.375 2.19158 4.35305 2.23065 4.31398C2.26972 4.27491 2.29167 4.22192 2.29167 4.16667V2.91667C2.29167 2.86141 2.26972 2.80842 2.23065 2.76935C2.19158 2.73028 2.13859 2.70833 2.08333 2.70833ZM1.875 3.95833H1.04167V3.125H1.875V3.95833ZM4.16667 0.625H2.91667C2.86141 0.625 2.80842 0.646949 2.76935 0.686019C2.73028 0.725089 2.70833 0.77808 2.70833 0.833333V2.08333C2.70833 2.13859 2.73028 2.19158 2.76935 2.23065C2.80842 2.26972 2.86141 2.29167 2.91667 2.29167H4.16667C4.22192 2.29167 4.27491 2.26972 4.31398 2.23065C4.35305 2.19158 4.375 2.13859 4.375 2.08333V0.833333C4.375 0.77808 4.35305 0.725089 4.31398 0.686019C4.27491 0.646949 4.22192 0.625 4.16667 0.625ZM3.95833 1.875H3.125V1.04167H3.95833V1.875ZM4.16667 3.33333H3.75V2.91667C3.75 2.86141 3.72805 2.80842 3.68898 2.76935C3.64991 2.73028 3.59692 2.70833 3.54167 2.70833C3.48641 2.70833 3.43342 2.73028 3.39435 2.76935C3.35528 2.80842 3.33333 2.86141 3.33333 2.91667V3.33333H2.91667C2.86141 3.33333 2.80842 3.35528 2.76935 3.39435C2.73028 3.43342 2.70833 3.48641 2.70833 3.54167C2.70833 3.59692 2.73028 3.64991 2.76935 3.68898C2.80842 3.72805 2.86141 3.75 2.91667 3.75H3.33333V4.16667C3.33333 4.22192 3.35528 4.27491 3.39435 4.31398C3.43342 4.35305 3.48641 4.375 3.54167 4.375C3.59692 4.375 3.64991 4.35305 3.68898 4.31398C3.72805 4.27491 3.75 4.22192 3.75 4.16667V3.75H4.16667C4.22192 3.75 4.27491 3.72805 4.31398 3.68898C4.35305 3.64991 4.375 3.59692 4.375 3.54167C4.375 3.48641 4.35305 3.43342 4.31398 3.39435C4.27491 3.35528 4.22192 3.33333 4.16667 3.33333ZM2.08333 0.625H0.833333C0.77808 0.625 0.725089 0.646949 0.686019 0.686019C0.646949 0.725089 0.625 0.77808 0.625 0.833333V2.08333C0.625 2.13859 0.646949 2.19158 0.686019 2.23065C0.725089 2.26972 0.77808 2.29167 0.833333 2.29167H2.08333C2.13859 2.29167 2.19158 2.26972 2.23065 2.23065C2.26972 2.19158 2.29167 2.13859 2.29167 2.08333V0.833333C2.29167 0.77808 2.26972 0.725089 2.23065 0.686019C2.19158 0.646949 2.13859 0.625 2.08333 0.625ZM1.875 1.875H1.04167V1.04167H1.875V1.875Z" fill="#71839B"/>
</g>
<defs>
<clipPath id="clip0_915_573">
<rect width="5" height="5" fill="white"/>
</clipPath>
</defs>
</svg>
