<svg width="5" height="5" viewBox="0 0 5 5" fill="none" xmlns="http://www.w3.org/2000/svg">
<g id="u:sign-out-alt" clip-path="url(#clip0_915_256)">
<path id="Vector" d="M2.62288 2.70833L2.14371 3.18541C2.12418 3.20478 2.10868 3.22782 2.09811 3.25321C2.08753 3.2786 2.08208 3.30583 2.08208 3.33333C2.08208 3.36083 2.08753 3.38806 2.09811 3.41345C2.10868 3.43884 2.12418 3.46188 2.14371 3.48125C2.16308 3.50077 2.18612 3.51627 2.21151 3.52685C2.23689 3.53742 2.26412 3.54287 2.29163 3.54287C2.31913 3.54287 2.34636 3.53742 2.37175 3.52685C2.39713 3.51627 2.42018 3.50077 2.43954 3.48125L3.27288 2.64791C3.29184 2.6281 3.30671 2.60474 3.31663 2.57916C3.33746 2.52844 3.33746 2.47155 3.31663 2.42083C3.30671 2.39526 3.29184 2.37189 3.27288 2.35208L2.43954 1.51875C2.42012 1.49932 2.39706 1.48391 2.37168 1.4734C2.3463 1.46289 2.3191 1.45748 2.29163 1.45748C2.26416 1.45748 2.23695 1.46289 2.21157 1.4734C2.18619 1.48391 2.16313 1.49932 2.14371 1.51875C2.12428 1.53817 2.10888 1.56123 2.09836 1.58661C2.08785 1.61199 2.08244 1.63919 2.08244 1.66666C2.08244 1.69413 2.08785 1.72133 2.09836 1.74671C2.10888 1.77209 2.12428 1.79515 2.14371 1.81458L2.62288 2.29166H0.624959C0.569706 2.29166 0.516715 2.31361 0.477645 2.35268C0.438575 2.39175 0.416626 2.44474 0.416626 2.5C0.416626 2.55525 0.438575 2.60824 0.477645 2.64731C0.516715 2.68638 0.569706 2.70833 0.624959 2.70833H2.62288ZM2.49996 0.416662C2.1106 0.414924 1.72855 0.522331 1.39714 0.726702C1.06573 0.931072 0.798221 1.22423 0.624959 1.57291C0.600095 1.62264 0.596004 1.68021 0.613586 1.73295C0.631167 1.7857 0.668981 1.8293 0.718709 1.85416C0.768437 1.87903 0.826006 1.88312 0.878751 1.86554C0.931495 1.84795 0.975095 1.81014 0.999959 1.76041C1.13167 1.49444 1.33201 1.26846 1.58028 1.10583C1.82856 0.943195 2.11576 0.849811 2.4122 0.835327C2.70864 0.820843 3.00358 0.885782 3.26653 1.02343C3.52947 1.16109 3.75089 1.36646 3.9079 1.61833C4.06491 1.8702 4.15181 2.15942 4.15963 2.45612C4.16744 2.75281 4.09589 3.04621 3.95236 3.306C3.80883 3.56578 3.59853 3.78253 3.3432 3.93383C3.08786 4.08514 2.79676 4.16552 2.49996 4.16666C2.18931 4.16801 1.88457 4.08174 1.62073 3.91776C1.35688 3.75377 1.14462 3.51872 1.00829 3.23958C0.983429 3.18985 0.939829 3.15204 0.887084 3.13445C0.834339 3.11687 0.776771 3.12096 0.727043 3.14583C0.677315 3.17069 0.6395 3.21429 0.621919 3.26704C0.604337 3.31978 0.608429 3.37735 0.633293 3.42708C0.798465 3.75948 1.04944 4.04171 1.36027 4.24459C1.67109 4.44747 2.03047 4.56362 2.40123 4.58103C2.772 4.59845 3.14069 4.51649 3.46916 4.34364C3.79763 4.17079 4.07395 3.91333 4.26956 3.59787C4.46516 3.28242 4.57293 2.92044 4.58173 2.54937C4.59053 2.1783 4.50003 1.81162 4.31959 1.48725C4.13916 1.16289 3.87534 0.892613 3.55543 0.704392C3.23552 0.516171 2.87113 0.416836 2.49996 0.416662Z" fill="#71839B"/>
</g>
<defs>
<clipPath id="clip0_915_256">
<rect width="5" height="5" fill="white"/>
</clipPath>
</defs>
</svg>
