<svg width="6" height="5" viewBox="0 0 6 5" fill="none" xmlns="http://www.w3.org/2000/svg">
<path d="M5.03699 2.67837C4.84318 2.27005 4.61254 1.93705 4.34507 1.67936L4.06455 1.95987C4.2933 2.17848 4.49255 2.46445 4.66484 2.82061C4.20613 3.77 3.55501 4.22099 2.66516 4.22099C2.39806 4.22099 2.15204 4.17986 1.9271 4.0976L1.62315 4.40155C1.93557 4.54581 2.28291 4.61795 2.66516 4.61795C3.72482 4.61795 4.51543 4.06606 5.03699 2.9623C5.05795 2.91791 5.06883 2.86943 5.06883 2.82033C5.06883 2.77124 5.05795 2.72276 5.03699 2.67837ZM4.68651 0.910582L4.45147 0.675274C4.44738 0.671173 4.44251 0.66792 4.43716 0.6657C4.4318 0.663481 4.42606 0.662338 4.42027 0.662338C4.41447 0.662338 4.40873 0.663481 4.40338 0.6657C4.39802 0.66792 4.39316 0.671173 4.38906 0.675274L3.78607 1.27799C3.45362 1.10818 3.07998 1.02327 2.66516 1.02327C1.60551 1.02327 0.8149 1.57516 0.293342 2.67892C0.272378 2.72331 0.261505 2.77179 0.261505 2.82089C0.261505 2.86998 0.272378 2.91846 0.293342 2.96285C0.501708 3.40171 0.752563 3.75348 1.04591 4.01815L0.46249 4.60141C0.454225 4.60968 0.449582 4.62089 0.449582 4.63258C0.449582 4.64428 0.454225 4.65549 0.46249 4.66376L0.697853 4.89912C0.706123 4.90739 0.717338 4.91203 0.72903 4.91203C0.740723 4.91203 0.751937 4.90739 0.760208 4.89912L4.68651 0.972992C4.69061 0.968896 4.69386 0.964032 4.69608 0.958677C4.6983 0.953323 4.69944 0.947583 4.69944 0.941787C4.69944 0.935991 4.6983 0.930251 4.69608 0.924897C4.69386 0.919543 4.69061 0.914678 4.68651 0.910582ZM0.66549 2.82061C1.12475 1.87122 1.77587 1.42023 2.66516 1.42023C2.96586 1.42023 3.23926 1.47184 3.48731 1.57675L3.09972 1.96434C2.91617 1.8664 2.70599 1.83006 2.50021 1.86066C2.29442 1.89126 2.10392 1.9872 1.95681 2.13431C1.8097 2.28142 1.71376 2.47192 1.68316 2.67771C1.65256 2.88349 1.6889 3.09367 1.78684 3.27722L1.32692 3.73714C1.07237 3.51247 0.852942 3.20808 0.66549 2.82061ZM2.02562 2.82061C2.02572 2.72339 2.04875 2.62757 2.09283 2.54092C2.13692 2.45427 2.20083 2.37925 2.27936 2.32194C2.35789 2.26463 2.44884 2.22665 2.5448 2.21109C2.64077 2.19554 2.73905 2.20283 2.83167 2.2324L2.0549 3.00916C2.03543 2.94821 2.02555 2.8846 2.02562 2.82061Z" fill="black" fill-opacity="0.44"/>
<path d="M2.64308 3.43814C2.624 3.43814 2.6052 3.43726 2.58657 3.43555L2.29535 3.72676C2.47051 3.79384 2.66134 3.80874 2.84478 3.76968C3.02823 3.73061 3.19643 3.63924 3.32905 3.50662C3.46167 3.374 3.55304 3.2058 3.59211 3.02235C3.63117 2.83891 3.61627 2.64808 3.54919 2.47293L3.25798 2.76414C3.25969 2.78277 3.26057 2.80157 3.26057 2.82065C3.26061 2.90175 3.24467 2.98207 3.21365 3.057C3.18264 3.13194 3.13715 3.20003 3.07981 3.25738C3.02246 3.31473 2.95437 3.36021 2.87943 3.39122C2.8045 3.42224 2.72418 3.43818 2.64308 3.43814Z" fill="black" fill-opacity="0.44"/>
</svg>
