<svg width="5" height="5" viewBox="0 0 5 5" fill="none" xmlns="http://www.w3.org/2000/svg">
<path fill-rule="evenodd" clip-rule="evenodd" d="M2.66516 0.93779C2.13395 0.93779 1.70369 1.38288 1.70369 1.93241C1.70369 2.48194 2.13395 2.92703 2.66516 2.92703C3.19636 2.92703 3.62662 2.48194 3.62662 1.93241C3.62662 1.38288 3.19636 0.93779 2.66516 0.93779ZM3.14586 1.93244C3.14586 1.65892 2.92953 1.43513 2.66513 1.43513C2.40072 1.43513 2.18439 1.65892 2.18439 1.93244C2.18439 2.20596 2.40072 2.42974 2.66513 2.42974C2.92953 2.42974 3.14586 2.20596 3.14586 1.93244ZM4.10733 4.41895C4.05925 4.24241 3.31412 3.92164 2.66513 3.92164C2.01854 3.92164 1.27822 4.23992 1.22293 4.41895H4.10733ZM0.742229 4.41895C0.742229 3.75753 2.02338 3.42433 2.66516 3.42433C3.30694 3.42433 4.58809 3.75753 4.58809 4.41895V4.91626H0.742229V4.41895Z" fill="black" fill-opacity="0.44"/>
</svg>
