<svg width="14" height="14" viewBox="0 0 14 14" fill="none" xmlns="http://www.w3.org/2000/svg">
<g id="Group">
<path id="Vector" d="M2.47838 5.33081L4.392 7.24444L5.98275 5.65313L7.75857 7.42894L6.75 8.4375H9.5625V5.625L8.55394 6.63356L5.98275 4.06238L4.392 5.65313L2.99982 4.2615C3.63174 3.31039 4.60161 2.63509 5.71289 2.37243C6.82417 2.10978 7.99374 2.27942 8.9846 2.84698C9.97546 3.41454 10.7135 4.33757 11.0492 5.42902C11.3848 6.52047 11.293 7.69871 10.7923 8.72497C10.2916 9.75124 9.41942 10.5488 8.35259 10.956C7.28576 11.3631 6.10402 11.3495 5.04686 10.9179C3.98969 10.4862 3.13617 9.66878 2.65924 8.63125C2.18231 7.59372 2.11766 6.41368 2.47838 5.33025V5.33081ZM1.61325 4.45444L1.60763 4.46006L1.60988 4.46231C1.28921 5.1823 1.12399 5.96183 1.125 6.75C1.125 9.85669 3.64332 12.375 6.75 12.375C9.85669 12.375 12.375 9.85669 12.375 6.75C12.375 3.64331 9.85669 1.125 6.75 1.125C4.46063 1.125 2.49188 2.49188 1.61325 4.45444Z" fill="#10D4A4"/>
</g>
</svg>
