<svg width="5" height="5" viewBox="0 0 5 5" fill="none" xmlns="http://www.w3.org/2000/svg">
<g id="Report Icon">
<path id="Vector" d="M4.52298 1.51875C4.50362 1.49922 4.48058 1.48372 4.45519 1.47315C4.4298 1.46257 4.40257 1.45712 4.37507 1.45712C4.34757 1.45712 4.32034 1.46257 4.29495 1.47315C4.26956 1.48372 4.24652 1.49922 4.22715 1.51875L2.91674 2.83125L2.02299 1.93541C2.00362 1.91589 1.98058 1.90039 1.95519 1.88981C1.9298 1.87923 1.90257 1.87379 1.87507 1.87379C1.84757 1.87379 1.82034 1.87923 1.79495 1.88981C1.76956 1.90039 1.74652 1.91589 1.72715 1.93541L0.477152 3.18541C0.457625 3.20478 0.442126 3.22782 0.43155 3.25321C0.420973 3.2786 0.415527 3.30583 0.415527 3.33333C0.415527 3.36083 0.420973 3.38806 0.43155 3.41345C0.442126 3.43884 0.457625 3.46188 0.477152 3.48125C0.496519 3.50077 0.519561 3.51627 0.544949 3.52685C0.570336 3.53743 0.597566 3.54287 0.625069 3.54287C0.652571 3.54287 0.679801 3.53743 0.705189 3.52685C0.730576 3.51627 0.753618 3.50077 0.772985 3.48125L1.87507 2.37708L2.76882 3.27291C2.78819 3.29244 2.81123 3.30794 2.83662 3.31852C2.862 3.32909 2.88923 3.33454 2.91674 3.33454C2.94424 3.33454 2.97147 3.32909 2.99686 3.31852C3.02224 3.30794 3.04528 3.29244 3.06465 3.27291L4.52298 1.81458C4.54251 1.79521 4.55801 1.77217 4.56859 1.74678C4.57916 1.7214 4.58461 1.69417 4.58461 1.66666C4.58461 1.63916 4.57916 1.61193 4.56859 1.58654C4.55801 1.56116 4.54251 1.53811 4.52298 1.51875Z" fill="#71839B"/>
</g>
</svg>
